<?xml version="1.0" encoding="UTF-8" standalone="no"?>
<svg width="400" height="300" viewBox="0 0 400 300" xmlns="http://www.w3.org/2000/svg">
  <!-- Background -->
  <rect width="400" height="300" fill="#f3f4f6" />
  
  <!-- Plate -->
  <circle cx="200" cy="160" r="120" fill="#ffffff" stroke="#d1d5db" stroke-width="2" />
  
  <!-- Fork and knife -->
  <path d="M120 100 L120 220" stroke="#9ca3af" stroke-width="4" stroke-linecap="round" />
  <path d="M120 100 L140 120" stroke="#9ca3af" stroke-width="4" stroke-linecap="round" />
  <path d="M120 100 L100 120" stroke="#9ca3af" stroke-width="4" stroke-linecap="round" />
  <path d="M120 140 L100 160" stroke="#9ca3af" stroke-width="4" stroke-linecap="round" />
  <path d="M120 140 L140 160" stroke="#9ca3af" stroke-width="4" stroke-linecap="round" />
  
  <path d="M280 100 L280 140" stroke="#9ca3af" stroke-width="4" stroke-linecap="round" />
  <path d="M260 100 L260 140" stroke="#9ca3af" stroke-width="4" stroke-linecap="round" />
  <path d="M270 140 L270 220" stroke="#9ca3af" stroke-width="4" stroke-linecap="round" />
  <path d="M250 140 L290 140" stroke="#9ca3af" stroke-width="4" stroke-linecap="round" />
  
  <!-- Food elements -->
  <circle cx="200" cy="160" r="60" fill="#fde68a" />
  <circle cx="180" cy="140" r="15" fill="#fca5a5" />
  <circle cx="220" cy="140" r="12" fill="#a7f3d0" />
  <circle cx="190" cy="180" r="18" fill="#bfdbfe" />
  <circle cx="230" cy="170" r="10" fill="#c7d2fe" />
  
  <!-- Text -->
  <text x="200" y="260" font-family="Arial, sans-serif" font-size="16" text-anchor="middle" fill="#6b7280">Recipe Image</text>
</svg>
